<?xml version="1.0" encoding="iso-8859-1"?>
<!DOCTYPE svg PUBLIC "-//W3C//DTD SVG 1.1//EN" "http://www.w3.org/Graphics/SVG/1.1/DTD/svg11.dtd">
<svg 
 version="1.1" xmlns="http://www.w3.org/2000/svg" xmlns:xlink="http://www.w3.org/1999/xlink" x="0px" y="0px" width="512px"
	 height="512px" viewBox="0 0 512 512" enable-background="new 0 0 512 512" xml:space="preserve"
><g id="b75708d097f2188dff6617b0f00f1112"><g></g><g fill="#ffffff"><path display="inline" d="M450.669,49.167v24.329c0,26.767-21.9,48.667-48.668,48.667H109.998c-26.767,0-48.667-21.9-48.667-48.667
		V49.167c0-26.767,21.9-48.667,48.667-48.667h292.003C428.769,0.5,450.669,22.4,450.669,49.167z M402.001,195.168H109.998
		c-26.767,0-48.667,21.9-48.667,48.667v24.329c0,26.767,21.9,48.667,48.667,48.667h292.003c26.768,0,48.668-21.9,48.668-48.667
		v-24.329C450.669,217.068,428.769,195.168,402.001,195.168z M402.001,389.837H109.998c-26.767,0-48.667,21.899-48.667,48.667
		v24.328c0,26.768,21.9,48.668,48.667,48.668h292.003c26.768,0,48.668-21.9,48.668-48.668v-24.328
		C450.669,411.736,428.769,389.837,402.001,389.837z"></path></g></g></svg>